<svg width="337" height="68" viewBox="0 0 337 68" fill="none" xmlns="http://www.w3.org/2000/svg">
<g clip-path="url(#clip0_224_40)">
<path d="M336.66 59.1501H0.00976562V61.5801H336.66V59.1501Z" fill="#F68938"/>
<path d="M336.66 64.6602H0.00976562V67.0902H336.66V64.6602Z" fill="black"/>
<path d="M66.3999 50.8501L65.1099 48.9001V20.8801L66.3999 18.6201H53.6099L54.5799 20.8801V48.9001L53.6099 50.8501H66.3999Z" fill="black"/>
<path d="M83.5699 50.8501L82.4299 47.2801V12.1401L83.2399 9.88013H70.6099L71.7499 12.1401V47.2801L70.9399 50.8501H83.5699Z" fill="black"/>
<path d="M100.89 50.8401C100.57 49.0601 100.08 47.2801 99.8898 45.3401V5.34012C100.116 3.54173 100.45 1.75853 100.89 0.00012207H88.2598C88.7044 1.75748 89.0384 3.54097 89.2598 5.34012V45.3401C89.0229 47.1897 88.6891 49.0256 88.2598 50.8401H100.89Z" fill="black"/>
<path d="M34.4902 50.8501L35.7902 48.9001V20.8801L34.4902 18.6201H47.2802L46.3102 20.8801V48.9001L47.2802 50.8501H34.4902Z" fill="#F68938"/>
<path d="M17.3301 50.8501L18.4601 47.2801V12.1401L17.6501 9.88013H30.2801L29.1501 12.1401V47.2801L29.9601 50.8501H17.3301Z" fill="#F68938"/>
<path d="M0 50.8401C0.32 49.0601 0.81 47.2801 1 45.3401V5.34012C0.773706 3.54173 0.439773 1.75853 0 0.00012207H12.63C12.1854 1.75748 11.8514 3.54097 11.63 5.34012V45.3401C11.8669 47.1897 12.2007 49.0256 12.63 50.8401H0Z" fill="#F68938"/>
<path d="M291.8 22.3901H283.87C284.244 20.9648 284.409 19.4928 284.36 18.0201C284.04 12.8401 279.99 10.0801 274.97 10.0801C274.8 9.76013 274.8 9.76013 274.48 9.76013L264.76 10.0801V12.3501H268.49C267.03 13.8101 265.74 15.2601 265.74 18.0201C265.41 19.8001 266.22 21.4201 266.22 22.3901H255.33V10.0801H252.58V13.0001C251.081 11.0868 248.76 10.0023 246.33 10.0801C242.11 10.0801 237.58 12.8401 237.26 18.0201C237.09 24.1701 240.5 24.8201 241.63 24.8201H291.18C294.1 24.8201 293.44 22.8801 294.1 19.6401C295.39 16.0701 302.68 17.3701 300.73 23.0401C300.41 24.3301 299.73 24.3301 298.95 24.1701L295.21 21.5401L294.88 24.2901L299.09 26.8801C300.39 27.5301 303.95 25.1001 303.47 20.0801C302.17 12.8401 291.33 13.8101 291.8 22.3901ZM251.8 22.3901H241.6C239.49 21.5801 239.33 19.6401 239.82 16.8901C240.47 14.1301 243.38 12.5101 246.3 12.5101C249.031 12.5352 251.444 14.2963 252.3 16.8901C253.11 19.6401 253.11 22.0701 251.81 22.3901H251.8ZM279.98 22.3901H269.98C268.03 21.5801 267.71 19.6401 268.19 16.8901C269.01 14.1301 272.08 12.3501 275 12.3501C277.75 12.3501 281.15 14.1301 281.8 16.8901C282.25 19.6401 282.09 21.5401 279.99 22.3901H279.98Z" fill="black"/>
<path d="M330.67 14.2902H319.33C318.612 14.2902 318.03 14.8722 318.03 15.5902C318.03 16.3081 318.612 16.8902 319.33 16.8902H329.33C333.33 17.0502 333.33 22.3902 329.33 22.3902C323.5 22.3902 316.7 22.0702 310.88 22.0702V1.18018H308.12V24.8202H330.63C337.15 24.8202 335.85 14.2902 330.67 14.2902Z" fill="black"/>
<path d="M327.75 26.1102C326.776 26.2204 326.064 27.0827 326.14 28.0602C326.14 28.951 326.859 29.6747 327.75 29.6802C328.606 29.6073 329.278 28.9176 329.33 28.0602C329.351 27.1112 328.683 26.2861 327.75 26.1102Z" fill="black"/>
<path d="M248.09 6.68013C248.484 6.70741 248.871 6.56201 249.149 6.28173C249.427 6.00146 249.57 5.614 249.54 5.22013C249.57 4.82704 249.427 4.44031 249.149 4.16152C248.87 3.88274 248.483 3.73975 248.09 3.77013C247.09 3.77013 246.31 4.25013 246.31 5.22013C246.31 6.19013 247.11 6.68013 248.09 6.68013Z" fill="black"/>
<path d="M207.6 26.1102C206.79 26.1102 206.15 27.1102 206.15 28.0602C206.131 28.8979 206.765 29.6067 207.6 29.6802C208.527 29.6892 209.306 28.9842 209.39 28.0602C209.37 27.0519 208.603 26.2159 207.6 26.1102Z" fill="black"/>
<path d="M219.42 22.0702H207.6V13.8102H205.01V22.0702H193.51V20.0702C192.22 12.7902 181.51 13.7602 181.86 22.3402H167.33V1.18018H164.53L164.69 24.8202H181.33C184.57 24.8202 183.6 22.8802 184.57 19.6402C185.57 16.0702 192.51 17.3702 190.72 23.0402C190.4 24.3302 189.72 24.3302 189.1 24.1702L185.42 21.5402L185.09 24.2902L189.47 26.8802C189.95 27.3702 191.73 26.4002 192.71 24.7802H222.18V1.18018H219.42V22.0702Z" fill="black"/>
<path d="M225.74 24.8202H228.17V1.18018H225.41L225.74 24.8202Z" fill="black"/>
<path d="M244.33 6.68015C244.878 6.72568 245.406 6.45874 245.694 5.98976C245.983 5.52079 245.983 4.92952 245.694 4.46055C245.406 3.99157 244.878 3.72463 244.33 3.77015C243.33 3.77015 242.55 4.25015 242.55 5.22015C242.55 6.19015 243.39 6.68015 244.33 6.68015Z" fill="black"/>
<path d="M204.04 26.1102C203.041 26.2206 202.279 27.0553 202.26 28.0602C202.338 28.9826 203.114 29.6888 204.04 29.6802C204.909 29.6221 205.602 28.9297 205.66 28.0602C205.653 27.1073 204.975 26.2913 204.04 26.1102Z" fill="black"/>
<path d="M150.44 22.3902H135.38V10.0802H132.79V13.0002C131.278 11.0694 128.93 9.98299 126.48 10.0802C122.27 10.0802 117.73 12.8402 117.41 18.0202C117.25 24.1702 120.81 24.8202 121.78 24.8202H149.63C152.87 24.8202 152.22 22.8802 152.87 19.6402C154 16.0702 161.29 17.3702 159.51 23.0402C159.02 24.3302 158.22 24.3302 157.73 24.1702L153.68 21.5402L153.33 24.3302L157.86 26.9202C159.16 27.5702 162.72 25.1402 161.91 20.1202C160.65 12.8402 149.96 13.8102 150.44 22.3902ZM131.98 22.3902H121.78C119.67 21.5802 119.51 19.6402 120 16.8902C120.81 14.1302 123.73 12.5102 126.48 12.5102C129.235 12.569 131.674 14.306 132.63 16.8902C133.33 19.6402 133.6 22.0702 131.98 22.3902Z" fill="black"/>
<path d="M127.77 6.6802C128.172 6.73785 128.578 6.60269 128.865 6.31542C129.152 6.02816 129.288 5.62235 129.23 5.2202C129.288 4.8187 129.153 4.41322 128.865 4.12731C128.577 3.84139 128.171 3.7089 127.77 3.7702C127.294 3.75729 126.832 3.92934 126.48 4.2502C126.31 4.4102 126.31 5.0602 126.31 5.2502C126.283 5.53437 126.343 5.81996 126.48 6.0702C126.776 6.4826 127.263 6.7132 127.77 6.6802Z" fill="black"/>
<path d="M124.05 6.68015C125.05 6.68015 125.83 6.20015 125.83 5.22015C125.83 4.24015 125.02 3.77015 124.05 3.77015C123.501 3.72463 122.974 3.99157 122.685 4.46055C122.397 4.92952 122.397 5.52079 122.685 5.98976C122.974 6.45874 123.501 6.72568 124.05 6.68015Z" fill="black"/>
<path d="M299.9 41.6602C299.42 41.9802 299.09 42.7902 298.61 43.4402V41.5402H296.33V51.5402H298.6V46.0302C298.587 45.2516 298.878 44.4985 299.41 43.9302C299.874 43.4547 300.529 43.2156 301.19 43.2802C301.398 43.3528 301.612 43.4064 301.83 43.4402L302.65 41.1702H301.65C300.88 41.1702 300.39 41.1702 299.9 41.6602Z" fill="black"/>
<path d="M307.19 42.9602C307.489 42.9681 307.776 43.0814 308 43.2802C308.49 43.4402 308.65 43.7602 309 43.9302L310.46 42.7902C309.636 41.8443 308.472 41.2621 307.22 41.1702C306.388 41.1393 305.575 41.4292 304.95 41.9802C304.264 42.4026 303.876 43.1777 303.95 43.9802C303.913 44.6113 304.085 45.237 304.44 45.7602C305.171 46.417 306.066 46.8629 307.03 47.0502C308.16 47.8602 308.65 48.3502 308.65 48.8302C308.584 49.1483 308.411 49.4342 308.16 49.6402C307.875 49.9633 307.461 50.1429 307.03 50.1302C306.297 50.0412 305.643 49.626 305.25 49.0002L303.47 49.8102C304.215 51.0776 305.561 51.8713 307.03 51.9102C307.903 51.8908 308.75 51.6085 309.46 51.1002C310.119 50.5332 310.486 49.699 310.46 48.8302C310.509 48.0971 310.338 47.366 309.97 46.7302C309.325 46.1332 308.53 45.722 307.67 45.5402C306.38 45.0502 305.73 44.4002 305.73 43.9202C305.73 43.4402 306.22 42.9602 307.19 42.9602Z" fill="black"/>
<path d="M314.47 41.5001H312.53V51.5401H314.47V41.5001Z" fill="black"/>
<path d="M319.98 38.4202H318.2V41.5002H316.26V43.4402H318.2V51.5402H319.98V43.4402H322.25V41.5002H319.98V38.4202Z" fill="black"/>
<path d="M332.61 41.5001L330.02 46.6801L326.3 41.5001H324.03L329.05 48.9501L325.81 56.2401H327.75L334.88 41.5001H332.61Z" fill="black"/>
<path d="M294.4 46.6802C294.437 45.2431 293.914 43.8478 292.94 42.7902C291.945 41.7035 290.522 41.1108 289.05 41.1702C287.65 41.1912 286.315 41.7698 285.343 42.7778C284.371 43.7858 283.841 45.14 283.87 46.5402C283.838 47.9199 284.365 49.2541 285.33 50.2402C286.34 51.2016 287.658 51.7753 289.05 51.8602C290.935 51.9008 292.731 51.0617 293.91 49.5902L292.33 48.4602C291.791 49.5526 290.632 50.1976 289.42 50.0802H289.09C288.373 50.0254 287.693 49.7414 287.15 49.2702C286.492 48.5395 286.043 47.6447 285.85 46.6802H294.44H294.4ZM289.05 43.2802C290.68 43.2802 291.8 43.7602 292.13 45.2202H286.13C286.518 43.9615 287.739 43.1504 289.05 43.2802Z" fill="black"/>
<path d="M231.73 41.1702C231.043 41.0551 230.34 41.2328 229.79 41.6602C229.208 42.0382 228.665 42.4737 228.17 42.9602V35.6702H225.9V51.5402H228.17V46.0302C228.157 45.2516 228.448 44.4985 228.98 43.9302C229.439 43.3172 230.154 42.9487 230.92 42.9302C231.397 42.9301 231.858 43.1004 232.22 43.4102C232.545 43.887 232.713 44.4534 232.7 45.0302V51.5402H234.97V44.4102C234.913 43.5595 234.559 42.7559 233.97 42.1402C233.362 41.5615 232.568 41.2177 231.73 41.1702Z" fill="black"/>
<path d="M253.11 46.0302C253.205 47.1012 252.841 48.1622 252.11 48.9502C251.294 49.7473 250.177 50.1584 249.04 50.0802C247.962 50.1418 246.926 49.6523 246.29 48.7802C245.633 47.8301 245.296 46.6949 245.33 45.5402V35.9902H243.07V45.2202C243.07 47.4902 243.55 49.2202 244.85 50.2202C245.85 51.5202 247.28 52.0002 249.38 52.0002C250.992 52.1432 252.569 51.4762 253.59 50.2202C254.758 49.0155 255.386 47.3875 255.33 45.7102V35.9902H253.07L253.11 46.0302Z" fill="black"/>
<path d="M262.66 41.1702C262.124 41.1037 261.587 41.2839 261.2 41.6602C260.491 42.0577 259.882 42.6118 259.42 43.2802V41.5402H257.48V51.5402H259.42V46.0302C259.401 45.2111 259.772 44.4317 260.42 43.9302C260.761 43.2719 261.46 42.879 262.2 42.9302C262.664 42.9917 263.108 43.1557 263.5 43.4102C263.777 43.9085 263.941 44.4616 263.98 45.0302V51.5402H266.25V44.2502C266.132 43.416 265.786 42.6305 265.25 41.9802C264.478 41.4766 263.581 41.1963 262.66 41.1702Z" fill="black"/>
<path d="M270.44 41.5001H268.49V51.5401H270.44V41.5001Z" fill="black"/>
<path d="M277.56 47.0101L274.81 41.5001H272.54L277.56 52.0201L282.74 41.5001H280.47L277.56 47.0101Z" fill="black"/>
<path d="M222.02 43.4402C221.468 42.8074 220.873 42.2128 220.24 41.6602C219.75 41.5002 219.42 41.1702 218.94 41.1702H217.94C216.628 41.1914 215.391 41.7828 214.55 42.7902C213.119 44.2791 212.668 46.4571 213.391 48.3918C214.114 50.3265 215.883 51.6751 217.94 51.8602H218.94C220.123 51.3414 221.175 50.566 222.02 49.5902V51.5902H223.96V41.5402H222.02V43.4402ZM221.21 48.9502C220.603 49.5724 219.803 49.9706 218.94 50.0802C217.965 50.0193 217.042 49.6196 216.33 48.9502C215.674 48.3142 215.312 47.4339 215.33 46.5202C215.279 45.6467 215.651 44.8019 216.33 44.2502C217.002 43.5487 217.951 43.1823 218.92 43.2502C219.79 43.2209 220.625 43.589 221.19 44.2502C221.928 44.755 222.316 45.6349 222.19 46.5202C222.29 47.443 221.922 48.3545 221.21 48.9502Z" fill="black"/>
<path d="M208.09 41.1702C207.456 41.0983 206.818 41.2738 206.31 41.6602C205.706 42.0815 205.207 42.6357 204.85 43.2802C204.53 42.4702 204.36 41.9802 203.85 41.6602C203.351 41.2554 202.706 41.0778 202.07 41.1702C201.466 41.1068 200.856 41.2363 200.33 41.5402C199.94 42.0635 199.505 42.552 199.03 43.0002V41.5402H196.77V51.5402H199.03V45.7102C199.109 45.0256 199.273 44.3536 199.52 43.7102C199.967 43.1948 200.618 42.9022 201.3 42.9102C202.3 42.9102 202.75 43.7102 202.75 45.0102V51.5402H205.02V46.0302C205.015 45.2531 205.305 44.5029 205.83 43.9302C206.117 43.3719 206.666 42.9958 207.29 42.9302C207.77 42.9039 208.238 43.0829 208.578 43.4226C208.917 43.7623 209.096 44.2305 209.07 44.7102V51.5402H211.17V44.2502C211.123 43.4332 210.845 42.6463 210.37 41.9802C209.701 41.5019 208.911 41.2213 208.09 41.1702Z" fill="black"/>
<path d="M192.55 43.4401C192.082 42.7301 191.473 42.1242 190.76 41.6601C190.348 41.4533 189.916 41.2891 189.47 41.1701H188.66C187.383 41.1621 186.18 41.764 185.42 42.7901C184.386 43.753 183.799 45.1023 183.799 46.5151C183.799 47.928 184.386 49.2773 185.42 50.2401C186.18 51.2662 187.383 51.8681 188.66 51.8601H189.47C190.675 51.3821 191.737 50.6 192.55 49.5901V51.5901H194.48V41.5401H192.55V43.4401ZM191.73 48.9501C191.128 49.5736 190.33 49.9723 189.47 50.0801C188.588 50.0405 187.763 49.6301 187.2 48.9501C186.455 48.3762 186.031 47.4798 186.06 46.5401C185.992 45.6311 186.43 44.7584 187.2 44.2701C187.745 43.5828 188.595 43.2087 189.47 43.2701C190.337 43.2395 191.17 43.6081 191.73 44.2701C192.47 44.7733 192.858 45.6545 192.73 46.5401C192.821 47.4602 192.446 48.365 191.73 48.9501Z" fill="black"/>
<path d="M179.1 41.1701C178.29 41.1701 177.81 41.1701 177.33 41.6601C176.723 42.0806 176.22 42.6348 175.86 43.2801C175.605 42.6645 175.22 42.1117 174.73 41.6601C174.18 41.2327 173.477 41.055 172.79 41.1701C172.276 41.1322 171.764 41.262 171.33 41.5401C170.824 42.0633 170.283 42.5511 169.71 43.0001V41.5401H167.77V51.5401H169.71V45.7101C169.757 44.9735 170.041 44.2719 170.52 43.7101C170.969 43.197 171.618 42.9049 172.3 42.9101C173.3 42.9101 173.76 43.7101 173.76 45.0101V51.5401H176.03V46.0301C176.076 45.3089 176.238 44.5998 176.51 43.9301C176.958 43.3862 177.593 43.0294 178.29 42.9301C178.746 42.937 179.179 43.1322 179.485 43.4694C179.792 43.8065 179.946 44.2556 179.91 44.7101V51.5401H182.18V44.2501C182.149 43.3657 181.737 42.5378 181.05 41.9801C180.535 41.4595 179.832 41.1677 179.1 41.1701Z" fill="black"/>
<path d="M156.76 35.9902H155.63H154.17L150.44 42.1502L146.72 35.9902H144.13L149.47 44.4102V51.5402H151.41V44.4102L155.63 37.4502L156.76 35.9902Z" fill="black"/>
<path d="M163.56 43.4402C163.008 42.8075 162.413 42.2128 161.78 41.6602C161.265 41.4243 160.72 41.2594 160.16 41.1702H159.51C158.218 41.0921 156.983 41.7098 156.27 42.7902C156.035 42.9274 155.817 43.0919 155.62 43.2802C154.328 45.2469 154.328 47.7935 155.62 49.7602C155.62 50.0802 155.95 50.0802 155.95 50.2402C156.881 51.222 158.158 51.803 159.51 51.8602H160.16C161.484 51.4378 162.662 50.6511 163.56 49.5902V51.5902H165.5V41.5402H163.56V43.4402ZM162.75 48.9502C162.061 49.6407 161.135 50.0444 160.16 50.0802C159.278 50.0406 158.454 49.6302 157.89 48.9502C157.234 48.3142 156.871 47.4339 156.89 46.5202C156.839 45.6467 157.211 44.802 157.89 44.2502C158.454 43.5866 159.29 43.218 160.16 43.2502C161.133 43.1551 162.094 43.5259 162.75 44.2502C163.364 44.8492 163.723 45.6627 163.75 46.5202C163.69 47.4173 163.338 48.2703 162.75 48.9502Z" fill="black"/>
<path d="M117.25 51.5402H119.51L121.46 47.5402H128.1L130.04 51.5402H132.33L124.72 35.1802L117.25 51.5402ZM124.7 45.7102H122.27L124.7 40.2002L127.33 45.7102H124.7Z" fill="black"/>
<path d="M136.35 35.6702H134.25V51.5402H136.35V35.6702Z" fill="black"/>
<path d="M269.33 36.3802C268.698 36.3802 268.129 36.7613 267.888 37.3455C267.647 37.9297 267.782 38.6014 268.231 39.0468C268.679 39.4921 269.351 39.6231 269.934 39.3785C270.517 39.1339 270.894 38.562 270.89 37.9302C270.89 37.5173 270.725 37.1216 270.432 36.8306C270.14 36.5396 269.743 36.3775 269.33 36.3802Z" fill="black"/>
<path d="M313.67 36.3802C313.038 36.3802 312.469 36.7613 312.228 37.3455C311.987 37.9297 312.122 38.6014 312.57 39.0468C313.019 39.4921 313.691 39.6231 314.274 39.3785C314.856 39.1339 315.234 38.562 315.23 37.9302C315.23 37.5173 315.065 37.1216 314.772 36.8306C314.479 36.5396 314.083 36.3775 313.67 36.3802Z" fill="black"/>
</g>
<defs>
<clipPath id="clip0_224_40">
<rect width="336.66" height="67.09" fill="white"/>
</clipPath>
</defs>
</svg>
